<?xml version="1.0" encoding="utf-8"?>
<!-- Generator: Adobe Illustrator 19.1.0, SVG Export Plug-In . SVG Version: 6.00 Build 0)  -->
<svg version="1.1" id="Layer_1" xmlns="http://www.w3.org/2000/svg" xmlns:xlink="http://www.w3.org/1999/xlink" x="0px" y="0px"
	 viewBox="-529 133 300 300" style="enable-background:new -529 133 300 300;" xml:space="preserve">
<path d="M-447.8,392.4c0,22.4-18.2,40.6-40.6,40.6s-40.6-18.2-40.6-40.6s18.2-40.6,40.6-40.6C-466,351.8-447.8,369.9-447.8,392.4z
	 M-529,235.2v60.1c75.6,0.8,136.8,62.1,137.6,137.6h60.1C-332.1,324.1-420.1,235.9-529,235.2z M-529,193.1
	c63.9,0.3,123.9,25.3,169,70.5c45.2,45.2,70.3,105.4,70.5,169.4h60.1c-0.3-165.4-134.3-299.4-299.7-300V193.1L-529,193.1z"/>
</svg>
